<mxfile host="app.diagrams.net" agent="Mozilla/5.0 (Windows NT 10.0; Win64; x64) AppleWebKit/537.36 (KHTML, like Gecko) Chrome/132.0.0.0 Safari/537.36" version="26.0.11">
  <diagram name="Trang-1" id="qspj4ITc2NhUvVkb_-Wg">
    <mxGraphModel dx="2000" dy="1801" grid="1" gridSize="10" guides="1" tooltips="1" connect="1" arrows="1" fold="1" page="1" pageScale="1" pageWidth="827" pageHeight="1169" math="0" shadow="0">
      <root>
        <mxCell id="0" />
        <mxCell id="1" parent="0" />
        <mxCell id="U7XDH8MyKb8GMgPuHNvj-1" value="&lt;font style=&quot;font-size: 18px;&quot;&gt;APPLICATION&lt;/font&gt;" style="rounded=0;whiteSpace=wrap;html=1;" vertex="1" parent="1">
          <mxGeometry x="-277.5" y="200" width="327.5" height="140" as="geometry" />
        </mxCell>
        <mxCell id="U7XDH8MyKb8GMgPuHNvj-10" value="" style="edgeStyle=orthogonalEdgeStyle;rounded=0;orthogonalLoop=1;jettySize=auto;html=1;" edge="1" parent="1" source="U7XDH8MyKb8GMgPuHNvj-4" target="U7XDH8MyKb8GMgPuHNvj-5">
          <mxGeometry relative="1" as="geometry" />
        </mxCell>
        <mxCell id="U7XDH8MyKb8GMgPuHNvj-4" value="TEST PHASE" style="rounded=0;whiteSpace=wrap;html=1;" vertex="1" parent="1">
          <mxGeometry x="-250" y="90" width="120" height="60" as="geometry" />
        </mxCell>
        <mxCell id="U7XDH8MyKb8GMgPuHNvj-11" value="" style="edgeStyle=orthogonalEdgeStyle;rounded=0;orthogonalLoop=1;jettySize=auto;html=1;" edge="1" parent="1" source="U7XDH8MyKb8GMgPuHNvj-5" target="U7XDH8MyKb8GMgPuHNvj-6">
          <mxGeometry relative="1" as="geometry" />
        </mxCell>
        <mxCell id="U7XDH8MyKb8GMgPuHNvj-33" style="edgeStyle=orthogonalEdgeStyle;rounded=0;orthogonalLoop=1;jettySize=auto;html=1;exitX=0.5;exitY=0;exitDx=0;exitDy=0;" edge="1" parent="1" source="U7XDH8MyKb8GMgPuHNvj-5">
          <mxGeometry relative="1" as="geometry">
            <mxPoint x="10.2352941176473" y="40" as="targetPoint" />
          </mxGeometry>
        </mxCell>
        <mxCell id="U7XDH8MyKb8GMgPuHNvj-5" value="PHASE 1" style="rounded=0;whiteSpace=wrap;html=1;" vertex="1" parent="1">
          <mxGeometry x="-50" y="90" width="120" height="60" as="geometry" />
        </mxCell>
        <mxCell id="U7XDH8MyKb8GMgPuHNvj-12" value="" style="edgeStyle=orthogonalEdgeStyle;rounded=0;orthogonalLoop=1;jettySize=auto;html=1;" edge="1" parent="1" source="U7XDH8MyKb8GMgPuHNvj-6" target="U7XDH8MyKb8GMgPuHNvj-7">
          <mxGeometry relative="1" as="geometry" />
        </mxCell>
        <mxCell id="U7XDH8MyKb8GMgPuHNvj-32" style="edgeStyle=orthogonalEdgeStyle;rounded=0;orthogonalLoop=1;jettySize=auto;html=1;" edge="1" parent="1" source="U7XDH8MyKb8GMgPuHNvj-6">
          <mxGeometry relative="1" as="geometry">
            <mxPoint x="210" y="40" as="targetPoint" />
          </mxGeometry>
        </mxCell>
        <mxCell id="U7XDH8MyKb8GMgPuHNvj-6" value="PHASE 2" style="rounded=0;whiteSpace=wrap;html=1;" vertex="1" parent="1">
          <mxGeometry x="150" y="90" width="120" height="60" as="geometry" />
        </mxCell>
        <mxCell id="U7XDH8MyKb8GMgPuHNvj-13" value="" style="edgeStyle=orthogonalEdgeStyle;rounded=0;orthogonalLoop=1;jettySize=auto;html=1;" edge="1" parent="1" source="U7XDH8MyKb8GMgPuHNvj-7" target="U7XDH8MyKb8GMgPuHNvj-8">
          <mxGeometry relative="1" as="geometry" />
        </mxCell>
        <mxCell id="U7XDH8MyKb8GMgPuHNvj-34" style="edgeStyle=orthogonalEdgeStyle;rounded=0;orthogonalLoop=1;jettySize=auto;html=1;" edge="1" parent="1" source="U7XDH8MyKb8GMgPuHNvj-7">
          <mxGeometry relative="1" as="geometry">
            <mxPoint x="409.99999999999955" y="40" as="targetPoint" />
          </mxGeometry>
        </mxCell>
        <mxCell id="U7XDH8MyKb8GMgPuHNvj-7" value="PHASE 3" style="rounded=0;whiteSpace=wrap;html=1;" vertex="1" parent="1">
          <mxGeometry x="350" y="90" width="120" height="60" as="geometry" />
        </mxCell>
        <mxCell id="U7XDH8MyKb8GMgPuHNvj-35" style="edgeStyle=orthogonalEdgeStyle;rounded=0;orthogonalLoop=1;jettySize=auto;html=1;" edge="1" parent="1" source="U7XDH8MyKb8GMgPuHNvj-8">
          <mxGeometry relative="1" as="geometry">
            <mxPoint x="609.9999999999995" y="40" as="targetPoint" />
          </mxGeometry>
        </mxCell>
        <mxCell id="U7XDH8MyKb8GMgPuHNvj-41" style="edgeStyle=orthogonalEdgeStyle;rounded=0;orthogonalLoop=1;jettySize=auto;html=1;" edge="1" parent="1" source="U7XDH8MyKb8GMgPuHNvj-8">
          <mxGeometry relative="1" as="geometry">
            <mxPoint x="610" y="390" as="targetPoint" />
          </mxGeometry>
        </mxCell>
        <mxCell id="U7XDH8MyKb8GMgPuHNvj-8" value="RELEASE PHASE" style="rounded=0;whiteSpace=wrap;html=1;" vertex="1" parent="1">
          <mxGeometry x="550" y="90" width="120" height="60" as="geometry" />
        </mxCell>
        <mxCell id="U7XDH8MyKb8GMgPuHNvj-28" value="&lt;font style=&quot;font-size: 20px;&quot;&gt;MARKETING&amp;nbsp;&lt;/font&gt;&lt;div&gt;&lt;font style=&quot;font-size: 20px;&quot;&gt;[LONG TERM]&lt;/font&gt;&lt;/div&gt;" style="rounded=0;whiteSpace=wrap;html=1;" vertex="1" parent="1">
          <mxGeometry x="-280" y="391" width="960" height="80" as="geometry" />
        </mxCell>
        <mxCell id="U7XDH8MyKb8GMgPuHNvj-30" value="&lt;font style=&quot;font-size: 20px;&quot;&gt;TECH + RESEARCH &amp;amp; DEVELOPMENT&lt;/font&gt;" style="rounded=0;whiteSpace=wrap;html=1;" vertex="1" parent="1">
          <mxGeometry x="-280" y="-130" width="960" height="80" as="geometry" />
        </mxCell>
        <mxCell id="U7XDH8MyKb8GMgPuHNvj-36" value="" style="endArrow=classic;html=1;rounded=0;" edge="1" parent="1">
          <mxGeometry width="50" height="50" relative="1" as="geometry">
            <mxPoint x="610" y="40" as="sourcePoint" />
            <mxPoint x="-190" y="40" as="targetPoint" />
          </mxGeometry>
        </mxCell>
        <mxCell id="U7XDH8MyKb8GMgPuHNvj-37" value="" style="endArrow=classic;html=1;rounded=0;entryX=0.5;entryY=0;entryDx=0;entryDy=0;" edge="1" parent="1" target="U7XDH8MyKb8GMgPuHNvj-4">
          <mxGeometry width="50" height="50" relative="1" as="geometry">
            <mxPoint x="-190" y="40" as="sourcePoint" />
            <mxPoint x="170" y="200" as="targetPoint" />
          </mxGeometry>
        </mxCell>
        <mxCell id="U7XDH8MyKb8GMgPuHNvj-44" style="edgeStyle=orthogonalEdgeStyle;rounded=0;orthogonalLoop=1;jettySize=auto;html=1;entryX=0.267;entryY=-0.023;entryDx=0;entryDy=0;entryPerimeter=0;" edge="1" parent="1" source="U7XDH8MyKb8GMgPuHNvj-4" target="U7XDH8MyKb8GMgPuHNvj-1">
          <mxGeometry relative="1" as="geometry" />
        </mxCell>
        <mxCell id="U7XDH8MyKb8GMgPuHNvj-45" value="&lt;font style=&quot;font-size: 18px;&quot;&gt;FEEDBACK&lt;/font&gt;" style="rounded=0;whiteSpace=wrap;html=1;" vertex="1" parent="1">
          <mxGeometry x="125" y="-30" width="170" height="50" as="geometry" />
        </mxCell>
        <mxCell id="U7XDH8MyKb8GMgPuHNvj-49" style="edgeStyle=orthogonalEdgeStyle;rounded=0;orthogonalLoop=1;jettySize=auto;html=1;" edge="1" parent="1" source="U7XDH8MyKb8GMgPuHNvj-46">
          <mxGeometry relative="1" as="geometry">
            <mxPoint x="310" y="390" as="targetPoint" />
          </mxGeometry>
        </mxCell>
        <mxCell id="U7XDH8MyKb8GMgPuHNvj-46" value="&lt;font style=&quot;font-size: 18px;&quot;&gt;BRANDING &amp;amp; MARKETING&lt;/font&gt;&lt;div&gt;&lt;span style=&quot;font-size: 18px;&quot;&gt;[SHORT TERM]&lt;/span&gt;&lt;/div&gt;&lt;div&gt;&lt;span style=&quot;font-size: 18px;&quot;&gt;TRIAL USER&lt;/span&gt;&lt;/div&gt;" style="rounded=0;whiteSpace=wrap;html=1;" vertex="1" parent="1">
          <mxGeometry x="150" y="200" width="320" height="140" as="geometry" />
        </mxCell>
        <mxCell id="U7XDH8MyKb8GMgPuHNvj-47" style="edgeStyle=orthogonalEdgeStyle;rounded=0;orthogonalLoop=1;jettySize=auto;html=1;entryX=0.189;entryY=0.023;entryDx=0;entryDy=0;entryPerimeter=0;" edge="1" parent="1" source="U7XDH8MyKb8GMgPuHNvj-6" target="U7XDH8MyKb8GMgPuHNvj-46">
          <mxGeometry relative="1" as="geometry" />
        </mxCell>
        <mxCell id="U7XDH8MyKb8GMgPuHNvj-48" style="edgeStyle=orthogonalEdgeStyle;rounded=0;orthogonalLoop=1;jettySize=auto;html=1;entryX=0.814;entryY=0.023;entryDx=0;entryDy=0;entryPerimeter=0;" edge="1" parent="1" source="U7XDH8MyKb8GMgPuHNvj-7" target="U7XDH8MyKb8GMgPuHNvj-46">
          <mxGeometry relative="1" as="geometry" />
        </mxCell>
        <mxCell id="U7XDH8MyKb8GMgPuHNvj-52" style="edgeStyle=orthogonalEdgeStyle;rounded=0;orthogonalLoop=1;jettySize=auto;html=1;entryX=0.173;entryY=-0.012;entryDx=0;entryDy=0;entryPerimeter=0;" edge="1" parent="1" source="U7XDH8MyKb8GMgPuHNvj-1" target="U7XDH8MyKb8GMgPuHNvj-28">
          <mxGeometry relative="1" as="geometry" />
        </mxCell>
        <mxCell id="U7XDH8MyKb8GMgPuHNvj-53" value="&lt;font style=&quot;font-size: 18px;&quot;&gt;BRANDING&lt;/font&gt;" style="rounded=0;whiteSpace=wrap;html=1;" vertex="1" parent="1">
          <mxGeometry x="-277.5" y="520" width="447.5" height="170" as="geometry" />
        </mxCell>
        <mxCell id="U7XDH8MyKb8GMgPuHNvj-54" value="&lt;font style=&quot;font-size: 18px;&quot;&gt;MARKETING&lt;/font&gt;" style="rounded=0;whiteSpace=wrap;html=1;" vertex="1" parent="1">
          <mxGeometry x="240" y="520" width="440" height="170" as="geometry" />
        </mxCell>
      </root>
    </mxGraphModel>
  </diagram>
</mxfile>
